HIERARCHY
ROOT Hips
{
	OFFSET 0.00 0.00 0.00
	CHANNELS 6 Xposition Yposition Zposition Xrotation Yrotation Zrotation
	JOINT Spine
	{
		OFFSET 0.00000 1.92919 2.89379
		CHANNELS 3 Xrotation Yrotation Zrotation
		JOINT Spine1
		{
			OFFSET 0.00000 0.67000 3.79977
			CHANNELS 3 Xrotation Yrotation Zrotation
			JOINT Spine2
			{
				OFFSET 0.00000 0.33628 3.84370
				CHANNELS 3 Xrotation Yrotation Zrotation
				JOINT Spine3
				{
					OFFSET 0.00000 0.00000 3.85838
					CHANNELS 3 Xrotation Yrotation Zrotation
					JOINT Neck
					{
						OFFSET 0.00000 -1.44688 10.12826
						CHANNELS 3 Xrotation Yrotation Zrotation
						JOINT Head
						{
							OFFSET 0.00000 -0.92125 5.22468
							CHANNELS 3 Xrotation Yrotation Zrotation
							End Site
							{
								OFFSET 0.00000 0.00001 6.24576
							}
						}
					}
					JOINT RightShoulder
					{
						OFFSET -1.19724 -1.99539 6.46510
						CHANNELS 3 Xrotation Yrotation Zrotation
						JOINT RightArm
						{
							OFFSET -5.94629 0.00000 0.00000
							CHANNELS 3 Xrotation Yrotation Zrotation
							JOINT RightForeArm
							{
								OFFSET -11.02134 0.00000 0.00000
								CHANNELS 3 Xrotation Yrotation Zrotation
								JOINT RightHand
								{
									OFFSET -10.43440 0.00000 0.00000
									CHANNELS 3 Xrotation Yrotation Zrotation
									JOINT RightHandEnd
									{
										OFFSET -2.82937 0.00000 0.00000
										CHANNELS 3 Xrotation Yrotation Zrotation
										End Site
										{
											OFFSET -2.82937 0.00000 0.00000
										}
									}
									JOINT RightHandThumb1
									{
										OFFSET -1.13175 -1.88625 -0.75450
										CHANNELS 3 Yrotation Xrotation Zrotation
										End Site
										{
											OFFSET -2.73296 -0.73229 0.00000
										}
									}
								}
							}
						}
					}
					JOINT LeftShoulder
					{
						OFFSET 1.19724 -1.99539 6.46510
						CHANNELS 3 Xrotation Yrotation Zrotation
						JOINT LeftArm
						{
							OFFSET 5.94629 0.00000 0.00000
							CHANNELS 3 Xrotation Yrotation Zrotation
							JOINT LeftForeArm
							{
								OFFSET 11.02134 0.00000 0.00000
								CHANNELS 3 Xrotation Yrotation Zrotation
								JOINT LeftHand
								{
									OFFSET 10.43440 0.00000 0.00000
									CHANNELS 3 Xrotation Yrotation Zrotation
									JOINT LeftHandEnd
									{
										OFFSET 2.82937 0.00000 0.00000
										CHANNELS 3 Xrotation Yrotation Zrotation
										End Site
										{
											OFFSET 2.82937 0.00000 0.00000
										}
									}
									JOINT LeftHandThumb1
									{
										OFFSET 1.13175 -1.88625 -0.75450
										CHANNELS 3 Yrotation Xrotation Zrotation
										End Site
										{
											OFFSET 2.73296 -0.73229 0.00000
										}
									}
								}
							}
						}
					}
				}
			}
		}
	}
	JOINT RightUpLeg
	{
		OFFSET -3.55181 0.00000 -1.03761
		CHANNELS 3 Xrotation Yrotation Zrotation
		JOINT RightLeg
		{
			OFFSET 0.00001 0.00000 -15.86106
			CHANNELS 3 Xrotation Yrotation Zrotation
			JOINT RightFoot
			{
				OFFSET 0.00001 0.00000 -16.30493
				CHANNELS 3 Xrotation Yrotation Zrotation
				JOINT RightToeBase
				{
					OFFSET 0.00000 -5.76215 -2.09725
					CHANNELS 3 Xrotation Yrotation Zrotation
					End Site
					{
						OFFSET 0.00000 -2.87338 -0.00000
					}
				}
			}
		}
	}
	JOINT LeftUpLeg
	{
		OFFSET 3.55181 0.00000 -1.03761
		CHANNELS 3 Xrotation Yrotation Zrotation
		JOINT LeftLeg
		{
			OFFSET 0.00001 0.00000 -15.86106
			CHANNELS 3 Xrotation Yrotation Zrotation
			JOINT LeftFoot
			{
				OFFSET 0.00001 0.00000 -16.30493
				CHANNELS 3 Xrotation Yrotation Zrotation
				JOINT LeftToeBase
				{
					OFFSET 0.00000 -5.76215 -2.09725
					CHANNELS 3 Xrotation Yrotation Zrotation
					End Site
					{
						OFFSET 0.00000 -2.87338 -0.00000
					}
				}
			}
		}
	}
}
MOTION
Frames: 7
Frame Time: 0.008342
 4.3098 -30.2903 35.5499 3.4119 3.4161 -77.2601 1.3017 -3.2100 -0.2887 -0.6562 -0.8358 -0.1987 7.5542 0.3065 -2.0963 3.3628 0.5975 -1.2966 7.8865 2.5647 1.9244 5.8844 3.7823 4.0133 13.1515 -1.7130 7.7002 26.5883 -53.1058 35.7601 -0.0000 0.0001 89.2251 -14.1694 25.8415 -1.4022 0.0000 0.0000 0.0000 -0.0000 -0.0000 0.0000 9.3597 5.9578 -7.6102 8.9911 39.5259 -38.4056 -0.0000 -0.0001 -72.9992 -22.5846 -40.9942 -1.8120 -0.0000 0.0000 0.0000 0.0000 -0.0000 0.0000 -0.3903 -8.1606 -32.0579 10.5536 0.0000 0.0000 -8.1041 6.0171 -2.0513 -4.0932 0.0000 -0.0000 -25.8707 -6.5230 20.4948 32.4230 0.0000 0.0000 3.1240 -2.0474 13.6396 -26.7764 0.0000 -0.0000
 4.1078 -30.3245 35.5466 3.0533 3.5327 -76.7167 1.2440 -3.0447 -0.3274 -0.6893 -0.8219 -0.1935 7.5931 0.4227 -2.0261 3.4077 0.6434 -1.3482 8.1374 2.6744 1.8646 5.9675 3.6584 3.8084 13.0446 -1.6269 7.8145 26.9447 -53.0384 36.2814 -0.0000 0.0001 89.1451 -15.2501 26.4112 -1.3312 0.0000 0.0000 -0.0000 0.0000 0.0000 0.0000 9.3791 6.0867 -7.4657 9.6198 39.9241 -39.2927 -0.0000 -0.0001 -73.1024 -21.8759 -40.8837 -1.6192 0.0000 -0.0000 0.0000 -0.0000 0.0000 -0.0000 -0.1692 -7.7759 -31.5166 11.2016 0.0000 0.0000 -8.6117 5.9235 -3.0813 -4.1740 0.0000 -0.0000 -24.6825 -6.0975 22.8059 30.1404 0.0000 0.0000 4.1274 -3.3196 12.6042 -24.3761 0.0000 -0.0000
 3.9025 -30.3622 35.5390 2.6837 3.6520 -76.1795 1.1934 -2.8745 -0.3608 -0.7235 -0.8110 -0.1902 7.6139 0.5565 -1.9675 3.4533 0.6820 -1.3906 8.4068 2.7725 1.7981 6.0685 3.5456 3.6073 12.9198 -1.5449 7.9120 27.3142 -52.9795 36.8026 -0.0000 0.0001 89.0483 -16.3768 26.9750 -1.2709 -0.0000 -0.0000 0.0000 -0.0000 -0.0000 -0.0000 9.4093 6.1904 -7.3014 10.3665 40.3237 -40.2276 -0.0000 -0.0001 -73.2621 -21.2118 -40.7476 -1.4327 0.0000 0.0000 -0.0000 0.0000 -0.0000 0.0000 0.0111 -7.3742 -30.8689 11.9638 0.0000 0.0000 -9.1712 5.8307 -4.2165 -4.2509 0.0000 -0.0000 -23.4853 -5.6432 25.2186 28.0999 0.0000 0.0000 4.9675 -4.8168 11.3125 -21.7614 0.0000 -0.0000
 3.6971 -30.4038 35.5274 2.2882 3.7444 -75.6425 1.1276 -2.6980 -0.3867 -0.7578 -0.7505 -0.1809 7.6219 0.6611 -1.9140 3.4990 0.7284 -1.4480 8.6838 2.8531 1.7296 6.1875 3.4456 3.4135 12.7796 -1.4862 8.0015 27.6686 -52.9160 37.3025 -0.0000 0.0001 88.9367 -17.5521 27.5193 -1.2192 -0.0000 -0.0000 0.0000 0.0000 -0.0000 -0.0000 9.4401 6.2757 -7.1154 11.2236 40.7113 -41.1963 -0.0000 -0.0001 -73.4798 -20.6064 -40.5742 -1.2597 0.0000 0.0000 -0.0000 -0.0000 0.0000 -0.0000 0.0997 -6.9262 -30.1336 12.8763 0.0000 0.0000 -9.7915 5.7568 -5.4522 -4.3330 0.0000 -0.0000 -22.3270 -5.1310 27.6166 26.3168 0.0000 0.0000 5.5841 -6.4571 9.8310 -19.0836 0.0000 -0.0000
 3.4948 -30.4476 35.5121 1.8733 3.7946 -75.0897 1.0383 -2.4914 -0.4080 -0.7899 -0.7029 -0.1809 7.6150 0.7851 -1.8666 3.5442 0.7755 -1.5145 8.9607 2.9118 1.6540 6.3228 3.3564 3.2270 12.6178 -1.4649 8.0806 27.9981 -52.8547 37.7654 -0.0000 0.0001 88.8130 -18.7725 28.0241 -1.1736 0.0000 0.0000 0.0000 0.0000 -0.0000 0.0000 9.4736 6.3474 -6.9195 12.1727 41.0637 -42.1848 -0.0000 -0.0001 -73.7545 -20.0712 -40.3593 -1.1023 -0.0000 0.0000 -0.0000 0.0000 -0.0000 -0.0000 0.0631 -6.4384 -29.3201 13.9532 0.0000 0.0000 -10.4571 5.7078 -6.8068 -4.4370 0.0000 -0.0000 -21.2544 -4.5641 29.8591 24.8097 0.0000 0.0000 5.9372 -8.1473 8.2360 -16.5067 0.0000 -0.0000
 3.2995 -30.4921 35.4933 1.4440 3.7719 -74.5087 0.9167 -2.2687 -0.4275 -0.8502 -0.6347 -0.1787 7.6146 0.9180 -1.8533 3.5863 0.8151 -1.5680 9.2291 2.9533 1.5643 6.4719 3.2723 3.0443 12.4374 -1.4890 8.1373 28.2866 -52.7967 38.1855 -0.0000 0.0001 88.6759 -20.0349 28.4746 -1.1346 0.0000 -0.0000 -0.0000 -0.0000 -0.0000 0.0000 9.4992 6.4168 -6.7430 13.1938 41.3673 -43.1566 -0.0000 -0.0001 -74.0928 -19.6079 -40.0979 -0.9575 0.0000 -0.0000 -0.0000 0.0000 0.0000 0.0000 -0.1508 -5.9087 -28.4392 15.2145 0.0000 0.0000 -11.1496 5.6932 -8.2933 -4.5795 0.0000 -0.0000 -20.3213 -3.9395 31.8074 23.5717 0.0000 0.0000 6.0297 -9.7894 6.6260 -14.1834 0.0000 -0.0000
 3.1130 -30.5356 35.4718 1.0054 3.6789 -73.8876 0.7612 -2.0361 -0.4512 -0.9154 -0.5223 -0.1537 7.6064 1.0287 -1.8837 3.6261 0.8576 -1.6291 9.4825 2.9720 1.4653 6.6319 3.1945 2.8686 12.2350 -1.5693 8.1874 28.5197 -52.7453 38.5382 -0.0000 0.0001 88.5319 -21.3340 28.8554 -1.1085 0.0000 -0.0000 0.0000 0.0000 0.0000 0.0000 9.5234 6.4834 -6.5737 14.2724 41.6096 -44.1184 -0.0000 -0.0001 -74.4846 -19.2259 -39.7921 -0.8337 -0.0000 0.0000 0.0000 -0.0000 0.0000 0.0000 -0.5483 -5.3467 -27.5148 16.6638 0.0000 0.0000 -11.8393 5.7040 -9.9075 -4.7816 0.0000 -0.0000 -19.5388 -3.2686 33.3572 22.5851 0.0000 0.0000 5.8883 -11.3011 5.0828 -12.2321 0.0000 -0.0000
